# xmcd
#
# Track frame offsets:
#	150
#	15207
#	30470
#	46189
#	62020
#	78075
#	95767
#	110660
#	125977
#	141255
#	153910
#	167162
#
# Disc length: 2543 seconds
#
# Revision: 0
# Processed by: cddbd v1.5.1PL0 Copyright (c) Steve Scherf et al.
# Submitted via: dBpowerAMP V4.0
#
DISCID=9509ed0c
DTITLE=สาธิต ทองจันทร์ - รวมฮิต สาธิต ทองจันทร์ ชุด 1
DYEAR=1900
DGENRE=Country
TTITLE0=กลับเถิดจันทร์จ๋า
TTITLE1=ทหารห่วงแฟน
TTITLE2=รักแท้คือแม่ผม
TTITLE3=น่าซิบอกสักคำ
TTITLE4=คิดฮอดคราวลงวัด
TTITLE5=รักร้าวคราวฝนจาก
TTITLE6=พี่นิดคนเดิม
TTITLE7=กำพร้าลาบวช
TTITLE8=ฟ้าครึ้มฝน
TTITLE9=หนาวลมข่มใจ
TTITLE10=คืนนี้พังแน่
TTITLE11=ผิดหวัง (ลำล่อง)
EXTD=Sathit Thongjan 1
EXTT0=
EXTT1=
EXTT2=
EXTT3=
EXTT4=
EXTT5=
EXTT6=
EXTT7=
EXTT8=
EXTT9=
EXTT10=
EXTT11=
PLAYORDER=
